<?xml version="1.0" encoding="utf-8"?>
<!-- Generator: Adobe Illustrator 18.0.0, SVG Export Plug-In . SVG Version: 6.00 Build 0)  -->
<!DOCTYPE svg PUBLIC "-//W3C//DTD SVG 1.1//EN" "http://www.w3.org/Graphics/SVG/1.1/DTD/svg11.dtd">
<svg version="1.1" id="Capa_1" xmlns="http://www.w3.org/2000/svg" xmlns:xlink="http://www.w3.org/1999/xlink" x="0px" y="0px"
	 viewBox="0 0 32.8 35.3" enable-background="new 0 0 32.8 35.3" xml:space="preserve">
<g>
	<g>
		<defs>
			<circle id="SVGID_838_" cx="17.2" cy="17.9" r="13.4"/>
		</defs>
		<clipPath id="SVGID_1_">
			<use xlink:href="#SVGID_838_"  overflow="visible"/>
		</clipPath>
		<path clip-path="url(#SVGID_1_)" fill="#4D4D4D" d="M20.7,11.6c0.5,2.5-1.7,4.6-4.2,4.2c-1.4-0.3-2.5-1.4-2.8-2.8
			c-0.5-2.5,1.7-4.6,4.2-4.2C19.3,9.1,20.4,10.2,20.7,11.6z"/>
		<path clip-path="url(#SVGID_1_)" fill="#4D4D4D" d="M20.8,33.3h-7c-0.4,0-0.7-0.3-0.7-0.7V17.6c0-0.4,0.3-0.7,0.7-0.7h7
			c0.4,0,0.7,0.3,0.7,0.7v15.1C21.5,33,21.2,33.3,20.8,33.3z"/>
		<g clip-path="url(#SVGID_1_)">
			<path fill="#4D4D4D" d="M14.8,30.3c-1.1,0-1.9,0.9-1.9,1.9v15.8c0,1.1,0.9,1.9,1.9,1.9c1.1,0,1.9-0.9,1.9-1.9V32.2
				C16.8,31.2,15.9,30.3,14.8,30.3z"/>
			<path fill="#4D4D4D" d="M19.5,30.3c-1.1,0-1.9,0.9-1.9,1.9v15.8c0,1.1,0.9,1.9,1.9,1.9c1.1,0,1.9-0.9,1.9-1.9V32.2
				C21.5,31.2,20.6,30.3,19.5,30.3z"/>
			<path fill="#4D4D4D" d="M13.6,22.1v-5.2c0,0-3.6-0.1-4.3,3.9v0.4c0,0,0,0,0,0v10.5c0,0.8,0.7,1.5,1.5,1.5c0.8,0,1.5-0.7,1.5-1.5
				v-9.5H13.6z"/>
			<path fill="#4D4D4D" d="M25,20.8c-0.7-4-4.3-3.9-4.3-3.9v5.2H22v9.5c0,0.8,0.7,1.5,1.5,1.5c0.8,0,1.5-0.7,1.5-1.5v-9.5h0V20.8z"
				/>
		</g>
		<polygon clip-path="url(#SVGID_1_)" fill="#EDF8FE" points="17.6,20 17.1,20 16.7,20 16.1,27.2 17.1,28.2 18.2,27.2 		"/>
		<polygon clip-path="url(#SVGID_1_)" fill="#EDF8FE" points="17.1,17.9 16.3,18.5 16.6,19.6 17.1,19.6 17.7,19.6 18,18.5 		"/>
	</g>
	<g>
		<g>
			<g>
				<path fill="#003C4F" d="M23.2,8.9c0,0-1.6,0-1.6,0c-0.1,0-0.2,0.1-0.2,0.1l0,0.3c0,0,0,0.1,0.1,0.1l0.8,0.3c0,0,0,0,0.1,0
					c0,0,0,0,0.1,0l0.8-0.3c0.1,0,0.1-0.1,0.1-0.1l0-0.3C23.4,9,23.3,8.9,23.2,8.9z"/>
				<g>
					<path fill="#FFAE00" d="M24.8,5.3c0-1.3-1-2.4-2.4-2.4c-1.3,0-2.4,1-2.4,2.4c0,0.5,0.2,1,0.5,1.5c0,0,0,0,0,0
						c0.7,1,0.5,1.4,0.5,1.4c0,0,0,0.1,0,0.1s0,0.1,0.1,0.1c0,0,0,0,0.1,0c0.1,0,2.1,0.1,2.5,0c0,0,0,0,0,0c0,0,0,0,0,0
						c0,0,0.1-0.1,0.1-0.1s0,0,0-0.1c0,0-0.2-0.5,0.5-1.4C24.6,6.3,24.8,5.8,24.8,5.3z"/>
				</g>
				<path fill="#003C4F" d="M23.8,8.7l0-0.1c0-0.2,0-0.4,0-0.4l-2.8,0c0,0,0,0.2,0,0.4l0,0.1c0,0.2,0.2,0.4,0.4,0.4l2,0
					C23.6,9.1,23.8,8.9,23.8,8.7z"/>
			</g>
		</g>
		<path fill="#FFFFFF" d="M22.5,3.8c0-0.1-0.1-0.2-0.2-0.2c-0.9,0-1.6,0.7-1.6,1.6c0,0.1,0.1,0.2,0.2,0.2c0.1,0,0.2-0.1,0.2-0.2
			C21,4.5,21.6,4,22.3,4C22.4,4,22.5,3.9,22.5,3.8z"/>
	</g>
</g>
</svg>
