<?xml version="1.0" encoding="utf-8"?>
<!-- Generator: Adobe Illustrator 19.0.0, SVG Export Plug-In . SVG Version: 6.00 Build 0)  -->
<svg version="1.1" id="Capa_1" xmlns="http://www.w3.org/2000/svg" xmlns:xlink="http://www.w3.org/1999/xlink" x="0px" y="0px"
	 viewBox="0 0 15.6 9.9" style="enable-background:new 0 0 15.6 9.9;" xml:space="preserve">
<style type="text/css">
	.st0{fill:#BE202D;}
	.st1{fill:#EDF8FE;}
	.st2{fill:#3EB49E;}
</style>
<g id="XMLID_5_">
	<circle id="XMLID_12_" class="st0" cx="8" cy="5" r="4.9"/>
	<circle id="XMLID_11_" class="st1" cx="8" cy="5" r="3.4"/>
	<circle id="XMLID_10_" class="st0" cx="8" cy="5" r="2.4"/>
	<circle id="XMLID_9_" class="st1" cx="8" cy="5" r="1.2"/>
	<path id="XMLID_1_" class="st2" d="M15.5,2.1c0.1,0,0.1-0.1,0-0.2L15.5,2.1c0-0.1-0.6-0.8-0.6-0.9c0-0.1-0.1-0.1-0.1-0.1l0.1-0.8
		c0-0.1-0.1-0.2-0.2-0.1L13.1,1c-0.1,0-0.2,0.2-0.2,0.3l-0.2,0.8L8.3,4.5C8.1,4.6,7.9,4.6,8,4.8c0.1,0.2,0.2,0,0.4,0l4.5-2.1L13.5,3
		"/>
</g>
</svg>
