<?xml version="1.0" encoding="utf-8"?>
<!-- Generator: Adobe Illustrator 19.0.0, SVG Export Plug-In . SVG Version: 6.00 Build 0)  -->
<svg version="1.1" id="Capa_1" xmlns="http://www.w3.org/2000/svg" xmlns:xlink="http://www.w3.org/1999/xlink" x="0px" y="0px"
	 viewBox="0 0 47 47" style="enable-background:new 0 0 47 47;" xml:space="preserve">
<style type="text/css">
	.st0{fill:#F2F2F2;}
	.st1{opacity:0.4;}
	.st2{fill:#003C4F;}
	.st3{opacity:0.5;}
	.st4{fill:none;stroke:#003C4F;stroke-linecap:round;stroke-miterlimit:10;}
</style>
<g id="XMLID_2_">
	<path id="XMLID_18_" class="st0" d="M45.1,47H1.9c-1,0-1.9-0.8-1.9-1.9V1.9C0,0.8,0.8,0,1.9,0h43.3c1,0,1.9,0.8,1.9,1.9v43.3
		C47,46.2,46.2,47,45.1,47z"/>
	<g id="XMLID_3_">
		<g id="XMLID_7_" class="st1">
			<path id="XMLID_17_" class="st2" d="M25.9,15.9V9.6c0-0.2,0.3-0.3,0.4-0.2l5.2,6.3c0.1,0.2,0,0.4-0.2,0.4h-5.2
				C26,16.1,25.9,16,25.9,15.9z"/>
			<path id="XMLID_8_" class="st2" d="M25.4,15.8V9.6c0-0.4-0.3-0.7-0.7-0.7h-8.9c-0.4,0-0.7,0.3-0.7,0.7v16.9
				c0,0.4,0.3,0.7,0.7,0.7h15.4c0.4,0,0.7-0.3,0.7-0.7v-9.2c0-0.4-0.3-0.7-0.7-0.7h-5.1C25.7,16.5,25.4,16.2,25.4,15.8z M16.7,10.8
				h7.4v0.5h-7.4V10.8z M16.7,12.3h7.4v0.5h-7.4V12.3z M16.7,13.9h7.4v0.5h-7.4V13.9z M16.7,15.4h7.4v0.5h-7.4V15.4z M16.7,19.5h8.7
				v0.5h-8.7V19.5z M26.7,21.3h-10v-0.5h10V21.3z M28.5,18.5H16.7V18h11.8V18.5z"/>
		</g>
		<g id="XMLID_4_" class="st3">
			<line id="XMLID_6_" class="st4" x1="23.5" y1="30.2" x2="23.5" y2="37.1"/>
			<line id="XMLID_5_" class="st4" x1="27" y1="33.7" x2="20.1" y2="33.7"/>
		</g>
	</g>
</g>
</svg>
