<?xml version="1.0" encoding="UTF-8" standalone="no"?>
<!-- Created with Inkscape (http://www.inkscape.org/) -->

<svg
   xmlns:dc="http://purl.org/dc/elements/1.1/"
   xmlns:cc="http://creativecommons.org/ns#"
   xmlns:rdf="http://www.w3.org/1999/02/22-rdf-syntax-ns#"
   xmlns:svg="http://www.w3.org/2000/svg"
   xmlns="http://www.w3.org/2000/svg"
   xmlns:sodipodi="http://sodipodi.sourceforge.net/DTD/sodipodi-0.dtd"
   xmlns:inkscape="http://www.inkscape.org/namespaces/inkscape"
   width="24"
   height="24"
   viewBox="0 0 24 24"
   id="svg4304"
   version="1.1"
   inkscape:version="0.91 r13725"
   sodipodi:docname="instagram.svg">
  <defs
     id="defs4306">
    <radialGradient
       id="SVGID_4_"
       cx="-36.925499"
       cy="-62.308498"
       r="31.562099"
       gradientUnits="userSpaceOnUse">
      <stop
         offset="9.693880e-002"
         style="stop-color:#FFD879"
         id="stop43" />
      <stop
         offset="0.1539"
         style="stop-color:#FCCB76"
         id="stop45" />
      <stop
         offset="0.2583"
         style="stop-color:#F5AA6C"
         id="stop47" />
      <stop
         offset="0.3976"
         style="stop-color:#E9755E"
         id="stop49" />
      <stop
         offset="0.449"
         style="stop-color:#E45F58"
         id="stop51" />
      <stop
         offset="0.6786"
         style="stop-color:#D22A9C"
         id="stop53" />
      <stop
         offset="1"
         style="stop-color:#6968DF"
         id="stop55" />
    </radialGradient>
  </defs>
  <sodipodi:namedview
     id="base"
     pagecolor="#ffffff"
     bordercolor="#666666"
     borderopacity="1.0"
     inkscape:pageopacity="0.0"
     inkscape:pageshadow="2"
     inkscape:zoom="5.6"
     inkscape:cx="9.4913548"
     inkscape:cy="9.1265204"
     inkscape:document-units="px"
     inkscape:current-layer="layer1"
     showgrid="false"
     units="px"
     inkscape:window-width="1366"
     inkscape:window-height="705"
     inkscape:window-x="-8"
     inkscape:window-y="-8"
     inkscape:window-maximized="1" />
  <metadata
     id="metadata4309">
    <rdf:RDF>
      <cc:Work
         rdf:about="">
        <dc:format>image/svg+xml</dc:format>
        <dc:type
           rdf:resource="http://purl.org/dc/dcmitype/StillImage" />
        <dc:title></dc:title>
      </cc:Work>
    </rdf:RDF>
  </metadata>
  <g
     inkscape:label="Capa 1"
     inkscape:groupmode="layer"
     id="layer1"
     transform="translate(0,-1028.3622)">
    <g
       transform="translate(44,1116.3622)"
       id="g40">
      <radialGradient
         id="radialGradient4283"
         cx="-36.925499"
         cy="-62.308498"
         r="31.562099"
         gradientUnits="userSpaceOnUse">
        <stop
           offset="9.693880e-002"
           style="stop-color:#FFD879"
           id="stop4285" />
        <stop
           offset="0.1539"
           style="stop-color:#FCCB76"
           id="stop4287" />
        <stop
           offset="0.2583"
           style="stop-color:#F5AA6C"
           id="stop4289" />
        <stop
           offset="0.3976"
           style="stop-color:#E9755E"
           id="stop4291" />
        <stop
           offset="0.449"
           style="stop-color:#E45F58"
           id="stop4293" />
        <stop
           offset="0.6786"
           style="stop-color:#D22A9C"
           id="stop4295" />
        <stop
           offset="1"
           style="stop-color:#6968DF"
           id="stop4297" />
      </radialGradient>
      <path
         style="fill:url(#SVGID_4_)"
         inkscape:connector-curvature="0"
         d="m -20.1,-69 c 0,2.7 -2.2,4.9 -4.9,4.9 l -14,0 c -2.7,0 -4.9,-2.2 -4.9,-4.9 l 0,-14 c 0,-2.7 2.2,-4.9 4.9,-4.9 l 14,0 c 2.7,0 4.9,2.2 4.9,4.9 l 0,14 z"
         id="path57" />
      <g
         id="g59">
        <path
           style="fill:#ffffff"
           inkscape:connector-curvature="0"
           d="m -28.5,-85 -6.9,0 c -3.1,0 -5.5,2.5 -5.5,5.5 l 0,6.9 c 0,3.1 2.5,5.5 5.5,5.5 l 6.9,0 c 3.1,0 5.5,-2.5 5.5,-5.5 l 0,-6.9 c 0,-3.1 -2.5,-5.5 -5.5,-5.5 z m 3.8,11.7 c 0,2.5 -2,4.5 -4.5,4.5 l -5.6,0 c -2.5,0 -4.5,-2 -4.5,-4.5 l 0,-5.6 c 0,-2.5 2,-4.5 4.5,-4.5 l 5.6,0 c 2.5,0 4.5,2 4.5,4.5 l 0,5.6 z"
           id="path61" />
        <path
           style="fill:#ffffff"
           inkscape:connector-curvature="0"
           d="m -31.8,-80.8 c -2.6,0 -4.7,2.1 -4.7,4.7 0,2.6 2.1,4.7 4.7,4.7 2.6,0 4.7,-2.1 4.7,-4.7 0.1,-2.5 -2,-4.7 -4.7,-4.7 z m 0,7.6 c -1.6,0 -2.8,-1.3 -2.8,-2.8 0,-1.6 1.3,-2.8 2.8,-2.8 1.6,0 2.8,1.3 2.8,2.8 0.1,1.5 -1.2,2.8 -2.8,2.8 z"
           id="path63" />
        <circle
           style="fill:#ffffff"
           cx="-27.299999"
           cy="-80.800003"
           r="1.2"
           id="circle65" />
      </g>
    </g>
  </g>
</svg>
