<?xml version="1.0" encoding="utf-8"?>
<!-- Generator: Adobe Illustrator 19.0.0, SVG Export Plug-In . SVG Version: 6.00 Build 0)  -->
<svg version="1.1" id="Capa_1" xmlns="http://www.w3.org/2000/svg" xmlns:xlink="http://www.w3.org/1999/xlink" x="0px" y="0px"
	 viewBox="0 0 9.7 10.5" style="enable-background:new 0 0 9.7 10.5;" xml:space="preserve">
<style type="text/css">
	.st0{fill:#F0F1F1;}
	.st1{fill:#D0D2D3;}
	.st2{fill:#929597;}
	.st3{fill:#BBBDBF;}
	.st4{fill:#F45D81;}
	.st5{fill:#F7CF9C;}
	.st6{fill:#221F1F;}
	.st7{fill:#FFAE00;}
	.st8{fill:#F7931E;}
</style>
<g>
	<g>
		<polygon class="st0" points="0,0 0,10.5 7.9,10.5 7.9,1.7 6.1,0 		"/>
		<polygon class="st1" points="7.9,1.7 6.1,0 6.1,1.7 		"/>
	</g>
	<rect x="1.3" y="3" class="st2" width="5.5" height="0.5"/>
	<rect x="1.3" y="3.8" class="st3" width="5.5" height="0.5"/>
	<rect x="1.3" y="4.7" class="st3" width="5.5" height="0.5"/>
	<rect x="1.3" y="1.5" class="st2" width="3.2" height="0.5"/>
	<rect x="1.3" y="5.6" class="st3" width="5.5" height="0.5"/>
	<rect x="1.3" y="6.9" class="st2" width="5.5" height="0.5"/>
	<rect x="1.3" y="7.8" class="st3" width="5.5" height="0.5"/>
	<rect x="1.3" y="8.7" class="st3" width="5.5" height="0.5"/>
	<g>
		<path class="st4" d="M7.6,9.6c-0.1-0.1-0.1-0.2,0-0.3l1-1c0.1-0.1,0.2-0.1,0.3,0l0.7,0.7c0.1,0.1,0.1,0.2,0,0.3l-1,1
			c-0.1,0.1-0.2,0.1-0.3,0L7.6,9.6z"/>
		<polygon class="st5" points="4.9,4.4 2.8,3.6 3.7,5.7 		"/>
		<polygon class="st6" points="3.5,3.9 2.8,3.6 3.1,4.3 		"/>
		<rect x="5.4" y="4.2" transform="matrix(-0.7073 0.707 -0.707 -0.7073 15.6575 7.5281)" class="st7" width="1.8" height="5.6"/>
		<rect x="7.5" y="8.9" transform="matrix(-0.7071 0.7071 -0.7071 -0.7071 20.8019 9.657)" class="st0" width="1.8" height="0.5"/>
		<rect x="5.5" y="4.5" transform="matrix(-0.7071 0.7071 -0.7071 -0.7071 15.3436 8.2848)" class="st8" width="0.9" height="5.6"/>
	</g>
</g>
</svg>
