<?xml version="1.0" encoding="utf-8"?>
<!-- Generator: Adobe Illustrator 18.0.0, SVG Export Plug-In . SVG Version: 6.00 Build 0)  -->
<!DOCTYPE svg PUBLIC "-//W3C//DTD SVG 1.1//EN" "http://www.w3.org/Graphics/SVG/1.1/DTD/svg11.dtd">
<svg version="1.1" id="Capa_1" xmlns="http://www.w3.org/2000/svg" xmlns:xlink="http://www.w3.org/1999/xlink" x="0px" y="0px"
	 viewBox="0 0 32 32" enable-background="new 0 0 32 32" xml:space="preserve">
<g opacity="0.81">
	<path fill="#372713" d="M16.6,9.8l0.1,8.6l-6,2.2L7.1,17l-0.7-5.6c0,0,3.1-0.5,3.9-0.6c0.8-0.1,3.2-0.5,3.9-0.6
		C15,10,16.5,9.7,16.6,9.8z"/>
	<path fill="#47331F" d="M26.7,14.4l-0.9,7.7l-9.1-3.7l-0.1-8.6l0,0c0,0,2.5,1,4.6,2C23.3,12.8,26.8,14.2,26.7,14.4z"/>
	<path fill="#47331F" d="M7.5,20.9c-0.1-0.1-1.3-9.7-1.2-9.6c0.1,0.1,7.6,6.1,7.6,6.3c0,0.2,0.5,12.3,0.3,12.1
		C14.1,29.6,7.5,20.9,7.5,20.9z"/>
	<path fill="#47331F" d="M26.8,14.4l-1.3,10.7c0,0,0,0.2-0.2,0.3c-0.2,0.1-10.6,4.4-10.8,4.4c-0.2,0-0.3,0-0.3,0l-0.4-12.2
		L26.8,14.4z"/>
	<path fill="#6B5237" d="M6.4,11.3c0,0-1.4-0.2-2.9-0.3c-1.5-0.1-2.1-0.2-2.1-0.2l-0.1,0.2c0,0,0.7,0.7,1.3,1.4
		c0.6,0.7,1.1,1.2,1.6,1.7c0.5,0.6,1.3,1.5,1.8,2.1c0.5,0.7,0.9,1.2,0.9,1.2s2.8-0.1,4.6-0.1c1.7,0,2.5,0.1,2.5,0.1l-0.2-0.2
		L6.4,11.3z"/>
	<path fill="#6B5237" d="M5.2,7.7c0,0,0.8,2.4,0.9,2.7c0.1,0.3,0.3,1,0.3,1s1.9-0.3,2.9-0.5c1-0.2,3.4-0.4,4.4-0.6
		c0.9-0.2,2.9-0.4,2.9-0.4s-0.4-1.4-0.6-2c-0.3-0.6-0.6-1.3-0.6-1.3s-2.3,0.3-3.6,0.4C10.6,7,8.3,7.3,7.4,7.4
		C6.4,7.5,5.3,7.6,5.2,7.7L5.2,7.7z"/>
	<path fill="#6B5237" d="M19.6,7c0,0-1.2,1.1-1.6,1.5c-0.4,0.4-1.4,1.2-1.4,1.2s2,0.9,2.9,1.4c1,0.5,3.2,1.5,4.3,1.9
		c1.1,0.4,3,1.3,3,1.3s1.6-1.7,2.5-2.5c0.8-0.8,1.4-1.4,1.4-1.4l-0.1-0.1c0,0-3.3-0.9-4.5-1.3C24.8,8.6,21.4,7.4,19.6,7z"/>
	<path fill="#6B5237" d="M30.3,18.4l0,0.1c0,0-1.8,0.6-2.6,0.8c-0.8,0.3-2.6,1-3.9,1.4c-1.3,0.3-3.2,0.9-4,1.2c-0.8,0.3-2.7,1-2.7,1
		l-0.1,0l-3.1-5.3c0,0-0.1-0.2,0-0.2c0.1,0,12.8-3.1,12.8-3.1l0.1,0C26.8,14.4,30.3,18.3,30.3,18.4z"/>
</g>
</svg>
