<?xml version="1.0" encoding="utf-8"?>
<!-- Generator: Adobe Illustrator 19.0.0, SVG Export Plug-In . SVG Version: 6.00 Build 0)  -->
<svg version="1.1" id="Capa_1" xmlns="http://www.w3.org/2000/svg" xmlns:xlink="http://www.w3.org/1999/xlink" x="0px" y="0px"
	 viewBox="0 0 28.5 33.3" style="enable-background:new 0 0 28.5 33.3;" xml:space="preserve">
<style type="text/css">
	.st0{opacity:0.5;}
	.st1{fill:#A31123;}
	.st2{fill:#8C091F;}
	.st3{fill:#D0D2D3;}
	.st4{fill:#BE1E2C;}
	.st5{fill:#F0F1F1;}
</style>
<g id="XMLID_128_" class="st0">
	<path id="XMLID_138_" class="st1" d="M1.2,9.3c-0.5,0.1-1-0.7-1.1-1.8L0,6.6c-0.1-1.1,0.2-1.9,0.7-2l20.4-2.4
		c0.5-0.1,1,0.7,1.1,1.8l0.1,0.9c0.1,1-0.2,1.9-0.7,2L1.2,9.3z"/>
	<path id="XMLID_137_" class="st2" d="M8.6,3.7l0,4.8l13-1.5c0.5-0.1,0.8-1,0.7-2L22.2,4c-0.1-1.1-0.6-1.9-1.1-1.8L8.6,3.7z"/>
	<circle id="XMLID_136_" class="st3" cx="16.8" cy="30.4" r="2.9"/>
	<circle id="XMLID_135_" class="st3" cx="16.6" cy="2.9" r="2.9"/>
	
		<rect id="XMLID_134_" x="12.8" y="-1.3" transform="matrix(6.075438e-003 1 -1 6.075438e-003 21.1999 -11.2199)" class="st4" width="6.9" height="12.7"/>
	
		<rect id="XMLID_133_" x="9.6" y="1.9" transform="matrix(6.075438e-003 1 -1 6.075438e-003 18.0727 -8.0359)" class="st1" width="6.9" height="6.3"/>
	<path id="XMLID_132_" class="st5" d="M6,29.1c0,0,2.3-6.3,3.4-10.4C10,16.2,9.9,8.6,9.9,8.6l12.7-0.1c0,0,0,7.4,0.7,9.8
		c1.5,5,3.5,10.7,3.5,10.7L6,29.1z"/>
	<path id="XMLID_131_" class="st4" d="M5.2,31.3c-0.5,0-1-0.4-1-0.9l0-0.4c0-0.5,0.4-0.9,1-0.9l22.3-0.1c0.5,0,1,0.4,1,0.9l0,0.4
		c0,0.5-0.4,0.9-1,0.9L5.2,31.3z"/>
	<path id="XMLID_130_" class="st3" d="M16.6,8.5l-6.7,0c0,0,0.1,7.7-0.6,10.1C8.2,22.8,6,29.1,6,29.1L16.8,29L16.6,8.5z"/>
	<path id="XMLID_129_" class="st1" d="M16.8,29L5.3,29.1c-0.6,0-1.1,0.4-1.1,0.9l0,0.4c0,0.5,0.5,0.9,1.1,0.9l11.5-0.1L16.8,29z"/>
</g>
</svg>
