<?xml version="1.0" encoding="utf-8"?>
<!-- Generator: Adobe Illustrator 19.0.0, SVG Export Plug-In . SVG Version: 6.00 Build 0)  -->
<svg version="1.1" id="Capa_1" xmlns="http://www.w3.org/2000/svg" xmlns:xlink="http://www.w3.org/1999/xlink" x="0px" y="0px"
	 viewBox="0 0 21.8 19.6" style="enable-background:new 0 0 21.8 19.6;" xml:space="preserve">
<style type="text/css">
	.st0{fill:#A31123;}
	.st1{fill:#8C091F;}
	.st2{fill:#D0D2D3;}
	.st3{fill:#BE1E2C;}
	.st4{fill:#F0F1F1;}
	.st5{fill:none;stroke:#666666;stroke-width:0.5;stroke-linecap:round;stroke-miterlimit:10;}
</style>
<g id="XMLID_11_">
	<path id="XMLID_24_" class="st0" d="M7.7,18.3c0.1,0.2-0.1,0.6-0.6,0.8l-0.4,0.2c-0.4,0.3-0.9,0.3-1,0.1l-5.1-8.4
		c-0.1-0.2,0.1-0.6,0.6-0.8L1.5,10c0.4-0.3,0.9-0.3,1-0.1L7.7,18.3z"/>
	<path id="XMLID_23_" class="st1" d="M3.7,16.2l2.1-1L2.5,9.9C2.4,9.7,2,9.7,1.5,10l-0.4,0.2c-0.4,0.3-0.7,0.6-0.6,0.8L3.7,16.2z"/>
	<circle id="XMLID_22_" class="st2" cx="13.8" cy="7.3" r="1.4"/>
	<circle id="XMLID_21_" class="st2" cx="1.8" cy="12.9" r="1.4"/>
	
		<rect id="XMLID_20_" x="1.1" y="9.6" transform="matrix(0.9056 -0.4241 0.4241 0.9056 -5.0891 2.3812)" class="st3" width="3.3" height="6.1"/>
	
		<rect id="XMLID_19_" x="1.8" y="12.5" transform="matrix(0.9056 -0.4241 0.4241 0.9056 -5.6132 2.7853)" class="st0" width="3.3" height="3"/>
	<path id="XMLID_18_" class="st4" d="M15.4,12.3c0,0-3.2,0.3-5.2,0.6c-1.2,0.2-4.5,1.8-4.5,1.8L3,9.2c0,0,3.3-1.5,4.1-2.3
		c1.9-1.7,4-3.7,4-3.7L15.4,12.3z"/>
	<path id="XMLID_17_" class="st3" d="M16.5,12.2c0.1,0.2,0,0.5-0.2,0.6l-0.2,0.1c-0.2,0.1-0.5,0-0.6-0.2L11,2.9
		c-0.1-0.2,0-0.5,0.2-0.6l0.2-0.1c0.2-0.1,0.5,0,0.6,0.2L16.5,12.2z"/>
	<path id="XMLID_16_" class="st2" d="M4.2,11.8l1.4,2.9c0,0,3.3-1.6,4.5-1.8c2-0.3,5.2-0.6,5.2-0.6l-2.2-4.7L4.2,11.8z"/>
	<path id="XMLID_15_" class="st0" d="M13.2,7.6l2.3,5c0.1,0.3,0.4,0.4,0.6,0.3l0.2-0.1c0.2-0.1,0.3-0.4,0.2-0.6l-2.3-5L13.2,7.6z"/>
	<path id="XMLID_14_" class="st5" d="M15.3,3.7c2,0.7,3.1,3,2.3,5"/>
	<path id="XMLID_13_" class="st5" d="M16.5,0.3c4,1.4,6,5.8,4.6,9.8"/>
	<path id="XMLID_12_" class="st5" d="M15.9,2c3,1.1,4.5,4.4,3.4,7.4"/>
</g>
</svg>
