<?xml version="1.0" encoding="utf-8"?>
<!-- Generator: Adobe Illustrator 19.0.0, SVG Export Plug-In . SVG Version: 6.00 Build 0)  -->
<svg version="1.1" id="Capa_1" xmlns="http://www.w3.org/2000/svg" xmlns:xlink="http://www.w3.org/1999/xlink" x="0px" y="0px"
	 viewBox="0 0 8.5 7.4" style="enable-background:new 0 0 8.5 7.4;" xml:space="preserve">
<style type="text/css">
	.st0{fill:#003C4F;}
</style>
<g>
	<path class="st0" d="M5.3,4v0.6c0.1,0.1,0.2,0.1,0.4,0.2C5.8,4.9,6,5,6.1,5.1c0.2,0.1,0.3,0.1,0.5,0.2c0.2,0.1,0.3,0.1,0.5,0.2
		c0.1,0.1,0.3,0.1,0.4,0.2c0.1,0,0.2,0.1,0.3,0.1C7.9,5.8,8,5.9,8.1,6c0.1,0.1,0.2,0.2,0.2,0.3c0.1,0.1,0.1,0.3,0.1,0.4v0.7H0V6.7
		c0-0.1,0.1-0.3,0.1-0.4C0.2,6.2,0.3,6.1,0.4,6c0.1-0.1,0.2-0.2,0.4-0.2c0.1,0,0.2-0.1,0.3-0.1c0.1,0,0.3-0.1,0.4-0.2
		c0.2-0.1,0.3-0.1,0.5-0.2C2.1,5.2,2.3,5.1,2.4,5C2.6,5,2.8,4.9,2.9,4.8c0.1-0.1,0.3-0.1,0.4-0.2V4c0,0,0-0.1,0-0.1
		c0-0.1,0-0.1-0.1-0.2c0-0.1,0-0.2-0.1-0.2C3,3.3,2.9,3.1,2.9,2.8C2.8,2.6,2.8,2.3,2.8,2c0-0.4,0-0.7,0.1-0.9C3,0.8,3.1,0.6,3.2,0.5
		c0.1-0.2,0.3-0.3,0.5-0.3C3.9,0,4.1,0,4.3,0c0.2,0,0.4,0,0.6,0.1C5,0.2,5.2,0.3,5.3,0.4c0.1,0.2,0.2,0.4,0.3,0.6
		C5.7,1.3,5.8,1.6,5.8,2c0,0.3,0,0.5-0.1,0.8C5.6,3,5.5,3.3,5.4,3.4c0,0.1-0.1,0.2-0.1,0.3c0,0.1,0,0.1-0.1,0.2C5.3,4,5.3,4,5.3,4"
		/>
</g>
</svg>
