<?xml version="1.0" encoding="utf-8"?>
<!-- Generator: Adobe Illustrator 18.0.0, SVG Export Plug-In . SVG Version: 6.00 Build 0)  -->
<!DOCTYPE svg PUBLIC "-//W3C//DTD SVG 1.1//EN" "http://www.w3.org/Graphics/SVG/1.1/DTD/svg11.dtd">
<svg version="1.1" id="Capa_1" xmlns="http://www.w3.org/2000/svg" xmlns:xlink="http://www.w3.org/1999/xlink" x="0px" y="0px"
	 viewBox="0 0 32 32" enable-background="new 0 0 32 32" xml:space="preserve">
<g>
	<g>
		<path fill="#808080" d="M28.2,15.3c0-0.4-0.4-0.6-0.9-0.6l-1.8,0c-0.3-1.1-0.7-2-1.3-2.9l0,0l1.3-1.3c0.3-0.3,0.3-0.8,0-1
			l-2.3-2.2c-0.3-0.3-0.8-0.3-1,0l-1.2,1.3C20,8.1,19.2,7.7,18,7.5l0,0l0-1.8C18,5.3,17.6,5,17.2,5L14,5.1c-0.4,0-0.6,0.3-0.5,0.7
			l0,1.8c-1.1,0.3-2.1,0.7-2.9,1.3l-0.1,0L9.2,7.7c-0.3-0.3-0.8-0.3-1.1,0L5.9,10c-0.3,0.3-0.3,0.8,0,1l1.3,1.3
			c-0.5,0.9-0.9,1.7-1.1,2.9h0l-1.8,0c-0.4,0-0.6,0.3-0.6,0.7l0.1,3.2c0,0.4,0.2,0.7,0.7,0.7l1.8,0c0.3,1.1,0.7,2,1.3,2.8l0,0
			L6.3,24c-0.3,0.3-0.3,0.8,0,1l2.3,2.2c0.3,0.3,0.8,0.3,1,0l0.8-0.8l0.5-0.5c0.5,0.3,1.1,0.6,1.6,0.8c0.1,0,0.2,0.1,0.4,0.1
			c0,0,0,0,0,0c0.3,0.1,0.6,0.2,1,0.2v0l0,0.9l0,0.9c0,0.4,0.2,0.8,0.6,0.8l3.2-0.1c0.4,0,0.8-0.4,0.7-0.8l0-0.8l0-1
			c0.2-0.1,0.4-0.1,0.6-0.2c0.1,0,0.2-0.1,0.4-0.1c0.7-0.3,1.2-0.6,1.8-1l0,0l0.3,0.3l1,0.9c0.3,0.3,0.8,0.3,1,0l2.2-2.3
			c0.3-0.3,0.3-0.8,0-1l-1.3-1.3c0.5-0.9,0.9-1.9,1.1-2.9h0l1.8,0c0.4,0,0.8-0.3,0.8-0.7L28.2,15.3z M21.6,23.4
			c-0.6,0.6-1.4,1.1-2.1,1.4c-0.1,0.1-0.2,0.1-0.4,0.2c-1,0.4-2,0.6-3.1,0.6c-1,0-2.1-0.2-3-0.5c-0.1,0-0.2-0.1-0.4-0.1
			c-0.8-0.3-1.5-0.8-2.1-1.4c-1.7-1.5-2.8-3.8-2.8-6.2C7.7,12.7,11.4,9,16,9c4.6,0,8.3,3.7,8.3,8.3C24.3,19.7,23.3,21.9,21.6,23.4z"
			/>
	</g>
	<path fill="#2F4358" d="M18.5,12.7c0.5,1.9-1.2,3.5-3.1,3.1c-0.9-0.2-1.6-0.9-1.8-1.8c-0.5-1.9,1.2-3.5,3.1-3.1
		C17.6,11.1,18.3,11.8,18.5,12.7z"/>
	<path fill="#2F4358" d="M21.7,19c-0.5-2.9-3.1-2.8-3.1-2.8v0h-5v0c0,0-2.6-0.1-3.1,2.8v0.3c0,0,0,0,0,0v4.3c0.6,0.6,1.4,1,2.1,1.4
		v-5H13v5.1c0.9,0.4,1.9,0.5,3,0.5c1.1,0,2.2-0.2,3.1-0.6v-5.1h0.4v4.9c0.8-0.4,1.5-0.9,2.1-1.4v-3.5h0V19z"/>
	<g>
		<polygon fill="#C92D2D" points="16.4,18.4 16.1,18.4 15.7,18.4 15.3,23.6 16.1,24.3 16.8,23.6 		"/>
		<polygon fill="#C92D2D" points="16.1,16.9 15.5,17.4 15.7,18.1 16.1,18.1 16.4,18.1 16.7,17.4 		"/>
	</g>
</g>
</svg>
